# xmcd CD database file
#
# Track frame offsets:
#	150
#	19104
#	35562
#	55016
#	77763
#	102841
#	117233
#	135644
#	162055
#	197466
#	212096
#	229291
#	247116
#
# Disc length: 3480 seconds
#
# Revision: 0
# Processed by: cddbd v1.5.2PL0 Copyright (c) Steve Scherf et al.
# Submitted via: CDex 1.51
#
DISCID=a90d960d
DTITLE=Larry Schuba and Western Union - Zeitreise
DYEAR=1900
DGENRE=Country
TTITLE0=Mississippi
TTITLE1=Rastloses Glück
TTITLE2=Sieben Dunkle Rosen
TTITLE3=Von High Noon Bis El Paso
TTITLE4=Morgengedanken
TTITLE5=Frontalangriff
TTITLE6=Zu Oft
TTITLE7=Das Zuhause Ist Die Bühne
TTITLE8=Zeit
TTITLE9=Das "Drei Minuten Glück"
TTITLE10=P.S. In Großer Liebe "Ich"
TTITLE11=Jeany
TTITLE12=Moonlight Serenade
EXTD=
EXTT0=
EXTT1=
EXTT2=
EXTT3=
EXTT4=
EXTT5=
EXTT6=
EXTT7=
EXTT8=
EXTT9=
EXTT10=
EXTT11=
EXTT12=
PLAYORDER=
